<svg width="84" height="56" viewBox="0 0 84 56" fill="none" xmlns="http://www.w3.org/2000/svg">
<path d="M27.6188 7.27234H21.8999C20.3021 7.27234 19.0068 8.5552 19.0068 10.1377C19.0068 11.7202 20.3021 13.003 21.8999 13.003H27.6188C29.2166 13.003 30.5118 11.7202 30.5118 10.1377C30.5118 8.5552 29.2166 7.27234 27.6188 7.27234Z" fill="#A9A9A9" stroke="#1D1D1B" stroke-miterlimit="10"/>
<path d="M12.447 7.27234H9.58753C7.98973 7.27234 6.69446 8.5552 6.69446 10.1377C6.69446 11.7202 7.98973 13.003 9.58753 13.003H12.447C14.0448 13.003 15.34 11.7202 15.34 10.1377C15.34 8.5552 14.0448 7.27234 12.447 7.27234Z" fill="#A9A9A9" stroke="#1D1D1B" stroke-miterlimit="10"/>
<path d="M82.318 6.70262V46.9181C82.318 48.0646 81.8608 49.1642 81.0469 49.975C80.2331 50.7857 79.1293 51.2412 77.9784 51.2412H5.98798C5.41967 51.2412 4.85698 51.1292 4.33235 50.9115C3.80773 50.6938 3.33154 50.3749 2.93125 49.973C2.53096 49.5711 2.21449 49.0942 2.00008 48.5699C1.78568 48.0456 1.67758 47.4842 1.68202 46.9181V15.3154C1.67758 14.7493 1.78568 14.1879 2.00008 13.6636C2.21449 13.1392 2.53096 12.6624 2.93125 12.2605C3.33154 11.8586 3.80773 11.5396 4.33235 11.322C4.85698 11.1043 5.41967 10.9922 5.98798 10.9923H30.4782C31.6202 10.9923 32.7154 10.5403 33.523 9.73586C34.3305 8.93139 34.7841 7.84031 34.7841 6.70262C34.7841 6.13646 34.8966 5.57591 35.1151 5.05327C35.3336 4.53063 35.6538 4.05624 36.0572 3.65747C36.4606 3.2587 36.9393 2.94343 37.4656 2.72983C37.9919 2.51624 38.5555 2.40855 39.1237 2.41297H77.9784C78.5467 2.40855 79.1102 2.51624 79.6365 2.72983C80.1628 2.94343 80.6415 3.2587 81.0449 3.65747C81.4483 4.05624 81.7685 4.53063 81.987 5.05327C82.2055 5.57591 82.318 6.13646 82.318 6.70262Z" fill="url(#paint0_linear_6_15)" stroke="#1D1D1B" stroke-miterlimit="10"/>
<path d="M82.318 5.96531V15.7511H1.68201V14.5781C1.68201 13.4404 2.13567 12.3493 2.9432 11.5449C3.75072 10.7404 4.84596 10.2885 5.98797 10.2885H30.4782C31.0465 10.2885 31.6092 10.1764 32.1338 9.95876C32.6584 9.74109 33.1346 9.42212 33.5349 9.02023C33.9352 8.61835 34.2517 8.1415 34.4661 7.61718C34.6805 7.09286 34.7886 6.53144 34.7841 5.96531C34.793 4.82455 35.2541 3.73353 36.067 2.93001C36.8799 2.1265 37.9786 1.67562 39.1237 1.67566H77.9784C79.1235 1.67562 80.2222 2.1265 81.0351 2.93001C81.848 3.73353 82.3091 4.82455 82.318 5.96531Z" fill="#A9A9A9" stroke="#1D1D1B" stroke-miterlimit="10"/>
<path d="M82.318 45.544V46.918C82.318 48.0646 81.8608 49.1642 81.0469 49.9749C80.2331 50.7857 79.1293 51.2412 77.9784 51.2412H5.98798C5.41967 51.2412 4.85698 51.1291 4.33235 50.9114C3.80773 50.6938 3.33154 50.3748 2.93125 49.9729C2.53096 49.571 2.21449 49.0942 2.00008 48.5699C1.78568 48.0455 1.67758 47.4841 1.68202 46.918V45.4099L82.318 45.544Z" fill="#A9A9A9" stroke="#1D1D1B" stroke-miterlimit="10"/>
<path d="M55.2375 54.3244C68.28 54.3244 78.853 43.7914 78.853 30.7984C78.853 17.8053 68.28 7.27234 55.2375 7.27234C42.195 7.27234 31.6219 17.8053 31.6219 30.7984C31.6219 43.7914 42.195 54.3244 55.2375 54.3244Z" fill="#959595" stroke="#1D1D1B" stroke-miterlimit="10"/>
<path d="M55.2375 52.3136C67.1653 52.3136 76.8346 42.6809 76.8346 30.7983C76.8346 18.9158 67.1653 9.28308 55.2375 9.28308C43.3097 9.28308 33.6404 18.9158 33.6404 30.7983C33.6404 42.6809 43.3097 52.3136 55.2375 52.3136Z" fill="#D3D3D3"/>
<path d="M55.2374 46.5829C63.9882 46.5829 71.082 39.5159 71.082 30.7984C71.082 22.0808 63.9882 15.0138 55.2374 15.0138C46.4867 15.0138 39.3928 22.0808 39.3928 30.7984C39.3928 39.5159 46.4867 46.5829 55.2374 46.5829Z" fill="#7D7D7D"/>
<path d="M55.2375 42.8295C61.9074 42.8295 67.3144 37.4429 67.3144 30.7983C67.3144 24.1537 61.9074 18.7672 55.2375 18.7672C48.5677 18.7672 43.1606 24.1537 43.1606 30.7983C43.1606 37.4429 48.5677 42.8295 55.2375 42.8295Z" fill="#2E2E2E"/>
<path d="M55.2375 38.8414C59.6965 38.8414 63.3112 35.2404 63.3112 30.7983C63.3112 26.3563 59.6965 22.7552 55.2375 22.7552C50.7785 22.7552 47.1638 26.3563 47.1638 30.7983C47.1638 35.2404 50.7785 38.8414 55.2375 38.8414Z" fill="#2E2E2E"/>
<path d="M55.2375 36.2609C58.2659 36.2609 60.7209 33.8152 60.7209 30.7983C60.7209 27.7814 58.2659 25.3357 55.2375 25.3357C52.2091 25.3357 49.7542 27.7814 49.7542 30.7983C49.7542 33.8152 52.2091 36.2609 55.2375 36.2609Z" fill="#181818"/>
<path d="M46.0201 4.42371H40.2676C39.4687 4.42371 38.821 5.06889 38.821 5.86476C38.821 6.66063 39.4687 7.30581 40.2676 7.30581H46.0201C46.819 7.30581 47.4666 6.66063 47.4666 5.86476C47.4666 5.06889 46.819 4.42371 46.0201 4.42371Z" fill="#FFEC00"/>
<defs>
<linearGradient id="paint0_linear_6_15" x1="41.9832" y1="2.41297" x2="41.9832" y2="51.1742" gradientUnits="userSpaceOnUse">
<stop stop-color="white"/>
<stop offset="0.01" stop-color="#F6F6F6"/>
<stop offset="0.05" stop-color="#C8C8C8"/>
<stop offset="0.09" stop-color="#9D9D9D"/>
<stop offset="0.14" stop-color="#777777"/>
<stop offset="0.2" stop-color="#575757"/>
<stop offset="0.25" stop-color="#3B3B3B"/>
<stop offset="0.32" stop-color="#252525"/>
<stop offset="0.4" stop-color="#141414"/>
<stop offset="0.49" stop-color="#090909"/>
<stop offset="0.63" stop-color="#020202"/>
<stop offset="1"/>
</linearGradient>
</defs>
</svg>
