<svg width="60" height="40" viewBox="0 0 60 40" fill="none" xmlns="http://www.w3.org/2000/svg">
<g clip-path="url(#clip0_7_78)">
<path d="M19.7277 5.19446H15.6428C14.5015 5.19446 13.5763 6.11079 13.5763 7.24114C13.5763 8.37149 14.5015 9.28782 15.6428 9.28782H19.7277C20.869 9.28782 21.7942 8.37149 21.7942 7.24114C21.7942 6.11079 20.869 5.19446 19.7277 5.19446Z" fill="#A9A9A9" stroke="#1D1D1B" stroke-miterlimit="10"/>
<path d="M8.89067 5.19446H6.84822C5.70693 5.19446 4.78174 6.11079 4.78174 7.24114C4.78174 8.37149 5.70693 9.28782 6.84822 9.28782H8.89067C10.032 9.28782 10.9571 8.37149 10.9571 7.24114C10.9571 6.11079 10.032 5.19446 8.89067 5.19446Z" fill="#A9A9A9" stroke="#1D1D1B" stroke-miterlimit="10"/>
<path d="M58.7985 4.78756V33.5129C58.7922 34.3277 58.4628 35.107 57.8822 35.6809C57.3016 36.2549 56.5168 36.5769 55.6988 36.5769H4.20503C3.38708 36.5769 2.60224 36.2549 2.02162 35.6809C1.441 35.107 1.11163 34.3277 1.10529 33.5129V10.9396C1.10527 10.5352 1.18563 10.1348 1.3417 9.76147C1.49777 9.38815 1.7265 9.04929 2.01465 8.76445C2.30281 8.47961 2.64466 8.25443 3.0206 8.10187C3.39653 7.9493 3.7991 7.87239 4.20503 7.87555H21.674C22.0799 7.87556 22.4818 7.79551 22.8566 7.64003C23.2313 7.48455 23.5714 7.25669 23.8574 6.96963C24.1433 6.68257 24.3693 6.34194 24.5225 5.96743C24.6756 5.59291 24.7528 5.19194 24.7497 4.78756C24.7496 4.38316 24.83 3.98276 24.9861 3.60945C25.1421 3.23613 25.3709 2.89727 25.659 2.61243C25.9472 2.32759 26.2891 2.10241 26.665 1.94985C27.041 1.79728 27.4435 1.72037 27.8494 1.72353H55.6027C56.0166 1.70741 56.4295 1.77475 56.8166 1.9215C57.2038 2.06825 57.5572 2.29137 57.8557 2.57751C58.1541 2.86365 58.3914 3.20689 58.5535 3.58665C58.7155 3.96642 58.7989 4.37491 58.7985 4.78756Z" fill="url(#paint0_linear_7_78)" stroke="#1D1D1B" stroke-miterlimit="10"/>
<path d="M58.7986 4.28491V11.2507H1.12937V10.4608C1.1262 10.0553 1.20325 9.65316 1.3561 9.2773C1.50896 8.90144 1.73465 8.55925 2.02025 8.27028C2.30586 7.98131 2.64575 7.75117 3.02063 7.59308C3.3955 7.435 3.79799 7.35207 4.20505 7.34894H21.674C22.4897 7.34894 23.2721 7.02611 23.8489 6.4515C24.4257 5.87688 24.7497 5.09754 24.7497 4.28491C24.7497 3.46593 25.0763 2.68049 25.6576 2.10138C26.2389 1.52227 27.0273 1.19692 27.8494 1.19692H55.6028C56.0178 1.18409 56.4313 1.25445 56.8185 1.40388C57.2057 1.55331 57.5588 1.77879 57.8569 2.06683C58.155 2.35486 58.392 2.69961 58.5538 3.08065C58.7155 3.46168 58.7988 3.87121 58.7986 4.28491Z" fill="#A9A9A9" stroke="#1D1D1B" stroke-miterlimit="10"/>
<path d="M58.7985 32.5314V33.6325C58.7922 34.4473 58.4628 35.2267 57.8822 35.8006C57.3016 36.3745 56.5168 36.6965 55.6988 36.6965H4.20503C3.38708 36.6965 2.60224 36.3745 2.02162 35.8006C1.441 35.2267 1.11163 34.4473 1.10529 33.6325V32.5314H58.7985Z" fill="#A9A9A9" stroke="#1D1D1B" stroke-miterlimit="10"/>
<path d="M39.4553 38.8031C48.7714 38.8031 56.3236 31.2795 56.3236 21.9988C56.3236 12.718 48.7714 5.19446 39.4553 5.19446C30.1393 5.19446 22.5871 12.718 22.5871 21.9988C22.5871 31.2795 30.1393 38.8031 39.4553 38.8031Z" fill="#959595" stroke="#1D1D1B" stroke-miterlimit="10"/>
<path d="M39.4553 37.3668C47.9751 37.3668 54.8818 30.4863 54.8818 21.9988C54.8818 13.5112 47.9751 6.63074 39.4553 6.63074C30.9355 6.63074 24.0288 13.5112 24.0288 21.9988C24.0288 30.4863 30.9355 37.3668 39.4553 37.3668Z" fill="#D3D3D3"/>
<path d="M39.4553 33.2735C45.7059 33.2735 50.7729 28.2256 50.7729 21.9988C50.7729 15.772 45.7059 10.7241 39.4553 10.7241C33.2048 10.7241 28.1378 15.772 28.1378 21.9988C28.1378 28.2256 33.2048 33.2735 39.4553 33.2735Z" fill="#7D7D7D"/>
<path d="M39.4553 30.5925C44.2195 30.5925 48.0817 26.745 48.0817 21.9988C48.0817 17.2527 44.2195 13.4052 39.4553 13.4052C34.6911 13.4052 30.829 17.2527 30.829 21.9988C30.829 26.745 34.6911 30.5925 39.4553 30.5925Z" fill="#2E2E2E"/>
<path d="M39.4553 27.7439C42.6403 27.7439 45.2223 25.1718 45.2223 21.9988C45.2223 18.8259 42.6403 16.2538 39.4553 16.2538C36.2704 16.2538 33.6884 18.8259 33.6884 21.9988C33.6884 25.1718 36.2704 27.7439 39.4553 27.7439Z" fill="#2E2E2E"/>
<path d="M39.4553 25.9006C41.6185 25.9006 43.372 24.1537 43.372 21.9988C43.372 19.8438 41.6185 18.0969 39.4553 18.0969C37.2922 18.0969 35.5386 19.8438 35.5386 21.9988C35.5386 24.1537 37.2922 25.9006 39.4553 25.9006Z" fill="#181818"/>
<path d="M32.8714 3.15979H28.7625C28.1918 3.15979 27.7292 3.62063 27.7292 4.18911C27.7292 4.75759 28.1918 5.21844 28.7625 5.21844H32.8714C33.4421 5.21844 33.9047 4.75759 33.9047 4.18911C33.9047 3.62063 33.4421 3.15979 32.8714 3.15979Z" fill="#FFEC00"/>
</g>
<defs>
<linearGradient id="paint0_linear_7_78" x1="29.988" y1="1.72353" x2="29.988" y2="36.553" gradientUnits="userSpaceOnUse">
<stop stop-color="white"/>
<stop offset="0.01" stop-color="#F6F6F6"/>
<stop offset="0.05" stop-color="#C8C8C8"/>
<stop offset="0.09" stop-color="#9D9D9D"/>
<stop offset="0.14" stop-color="#777777"/>
<stop offset="0.2" stop-color="#575757"/>
<stop offset="0.25" stop-color="#3B3B3B"/>
<stop offset="0.32" stop-color="#252525"/>
<stop offset="0.4" stop-color="#141414"/>
<stop offset="0.49" stop-color="#090909"/>
<stop offset="0.63" stop-color="#020202"/>
<stop offset="1"/>
</linearGradient>
<clipPath id="clip0_7_78">
<rect width="60" height="40" fill="white"/>
</clipPath>
</defs>
</svg>
